<svg xmlns="http://www.w3.org/2000/svg" viewBox="0 0 820 648" width="820" height="648"
     font-family="ui-sans-serif, system-ui, -apple-system, BlinkMacSystemFont, sans-serif">

  <defs>
    <marker id="arr" markerWidth="10" markerHeight="7" refX="10" refY="3.5" orient="auto">
      <polygon points="0 0, 10 3.5, 0 7" fill="#94a3b8"/>
    </marker>
  </defs>

  <!-- Background -->
  <rect width="820" height="648" rx="14" fill="#ffffff" stroke="#e2e8f0" stroke-width="1"/>

  <!-- Title -->
  <text x="410" y="38" text-anchor="middle" font-size="19" font-weight="700" fill="#0f172a" letter-spacing="0.4">Pantio — Tech Stack</text>
  <line x1="40" y1="52" x2="780" y2="52" stroke="#e2e8f0" stroke-width="1"/>

  <!-- ═══ CLIENT ═══ -->
  <rect x="20" y="62" width="780" height="84" rx="10" fill="#f5f5f5" stroke="#c8c8c8" stroke-width="1.5"/>
  <text x="38" y="81" font-size="9" font-weight="700" fill="#404040" letter-spacing="2.2">CLIENT</text>

  <rect x="38" y="88" width="80" height="26" rx="6" fill="#ebebeb" stroke="#d4d4d4" stroke-width="1"/>
  <text x="78" y="106" text-anchor="middle" font-size="12" fill="#262626">Browser</text>

  <rect x="128" y="88" width="158" height="26" rx="6" fill="#ebebeb" stroke="#d4d4d4" stroke-width="1"/>
  <text x="207" y="106" text-anchor="middle" font-size="12" fill="#262626">iOS (Capacitor 4)</text>

  <rect x="296" y="88" width="175" height="26" rx="6" fill="#ebebeb" stroke="#d4d4d4" stroke-width="1"/>
  <text x="383" y="106" text-anchor="middle" font-size="12" fill="#262626">Android (Capacitor 4)</text>

  <rect x="481" y="88" width="160" height="26" rx="6" fill="#ebebeb" stroke="#d4d4d4" stroke-width="1"/>
  <text x="561" y="106" text-anchor="middle" font-size="12" fill="#262626">Barcode Scanner</text>

  <!-- Arrow CLIENT → FRONTEND -->
  <line x1="410" y1="146" x2="410" y2="170" stroke="#94a3b8" stroke-width="1.5" marker-end="url(#arr)"/>
  <rect x="379" y="151" width="62" height="14" rx="3" fill="#ffffff"/>
  <text x="410" y="162" text-anchor="middle" font-size="10" fill="#94a3b8">HTTPS</text>

  <!-- ═══ FRONTEND ═══ -->
  <rect x="20" y="174" width="780" height="118" rx="10" fill="#f0f0f0" stroke="#c4c4c4" stroke-width="1.5"/>
  <text x="38" y="193" font-size="9" font-weight="700" fill="#404040" letter-spacing="2.2">FRONTEND</text>

  <rect x="38" y="200" width="76" height="26" rx="6" fill="#e5e5e5" stroke="#cccccc" stroke-width="1"/>
  <text x="76" y="218" text-anchor="middle" font-size="12" fill="#1a1a1a">Vue 3.5</text>

  <rect x="124" y="200" width="116" height="26" rx="6" fill="#e5e5e5" stroke="#cccccc" stroke-width="1"/>
  <text x="182" y="218" text-anchor="middle" font-size="12" fill="#1a1a1a">TypeScript 6</text>

  <rect x="250" y="200" width="68" height="26" rx="6" fill="#e5e5e5" stroke="#cccccc" stroke-width="1"/>
  <text x="284" y="218" text-anchor="middle" font-size="12" fill="#1a1a1a">Vite 8</text>

  <rect x="38" y="236" width="72" height="26" rx="6" fill="#e5e5e5" stroke="#cccccc" stroke-width="1"/>
  <text x="74" y="254" text-anchor="middle" font-size="12" fill="#1a1a1a">Pinia 3</text>

  <rect x="120" y="236" width="112" height="26" rx="6" fill="#e5e5e5" stroke="#cccccc" stroke-width="1"/>
  <text x="176" y="254" text-anchor="middle" font-size="12" fill="#1a1a1a">Vue Router 4</text>

  <rect x="242" y="236" width="62" height="26" rx="6" fill="#e5e5e5" stroke="#cccccc" stroke-width="1"/>
  <text x="273" y="254" text-anchor="middle" font-size="12" fill="#1a1a1a">Auth0</text>

  <!-- Arrow FRONTEND → BACKEND -->
  <line x1="410" y1="292" x2="410" y2="316" stroke="#94a3b8" stroke-width="1.5" marker-end="url(#arr)"/>
  <rect x="362" y="298" width="96" height="14" rx="3" fill="#ffffff"/>
  <text x="410" y="309" text-anchor="middle" font-size="10" fill="#94a3b8">REST / JSON</text>

  <!-- ═══ BACKEND ═══ -->
  <rect x="20" y="320" width="780" height="118" rx="10" fill="#ebebeb" stroke="#c0c0c0" stroke-width="1.5"/>
  <text x="38" y="339" font-size="9" font-weight="700" fill="#404040" letter-spacing="2.2">BACKEND</text>

  <rect x="38" y="346" width="76" height="26" rx="6" fill="#e0e0e0" stroke="#cacaca" stroke-width="1"/>
  <text x="76" y="364" text-anchor="middle" font-size="12" fill="#1a1a1a">.NET 10</text>

  <rect x="124" y="346" width="128" height="26" rx="6" fill="#e0e0e0" stroke="#cacaca" stroke-width="1"/>
  <text x="188" y="364" text-anchor="middle" font-size="12" fill="#1a1a1a">ASP.NET Core</text>

  <rect x="262" y="346" width="70" height="26" rx="6" fill="#e0e0e0" stroke="#cacaca" stroke-width="1"/>
  <text x="297" y="364" text-anchor="middle" font-size="12" fill="#1a1a1a">C# 14</text>

  <rect x="38" y="382" width="98" height="26" rx="6" fill="#e0e0e0" stroke="#cacaca" stroke-width="1"/>
  <text x="87" y="400" text-anchor="middle" font-size="12" fill="#1a1a1a">EF Core 10</text>

  <rect x="146" y="382" width="96" height="26" rx="6" fill="#e0e0e0" stroke="#cacaca" stroke-width="1"/>
  <text x="194" y="400" text-anchor="middle" font-size="12" fill="#1a1a1a">JWT Bearer</text>

  <rect x="252" y="382" width="60" height="26" rx="6" fill="#e0e0e0" stroke="#cacaca" stroke-width="1"/>
  <text x="282" y="400" text-anchor="middle" font-size="12" fill="#1a1a1a">Redis</text>

  <rect x="322" y="382" width="134" height="26" rx="6" fill="#e0e0e0" stroke="#cacaca" stroke-width="1"/>
  <text x="389" y="400" text-anchor="middle" font-size="12" fill="#1a1a1a">HTTP Resilience</text>

  <rect x="466" y="382" width="112" height="26" rx="6" fill="#e0e0e0" stroke="#cacaca" stroke-width="1"/>
  <text x="522" y="400" text-anchor="middle" font-size="12" fill="#1a1a1a">Docker · Linux</text>

  <!-- Arrow BACKEND → DATABASE -->
  <line x1="205" y1="438" x2="205" y2="462" stroke="#94a3b8" stroke-width="1.5" marker-end="url(#arr)"/>
  <rect x="160" y="444" width="80" height="14" rx="3" fill="#ffffff"/>
  <text x="200" y="455" text-anchor="middle" font-size="10" fill="#94a3b8">EF Core</text>

  <!-- Arrow BACKEND → EXTERNAL -->
  <line x1="615" y1="438" x2="615" y2="462" stroke="#94a3b8" stroke-width="1.5" marker-end="url(#arr)"/>
  <rect x="573" y="444" width="80" height="14" rx="3" fill="#ffffff"/>
  <text x="613" y="455" text-anchor="middle" font-size="10" fill="#94a3b8">HTTPS</text>

  <!-- ═══ DATABASE ═══ -->
  <rect x="20" y="466" width="378" height="110" rx="10" fill="#f5f5f5" stroke="#c8c8c8" stroke-width="1.5"/>
  <text x="38" y="485" font-size="9" font-weight="700" fill="#525252" letter-spacing="2.2">DATABASE</text>

  <rect x="38" y="492" width="112" height="26" rx="6" fill="#eeeeee" stroke="#d4d4d4" stroke-width="1"/>
  <text x="94" y="510" text-anchor="middle" font-size="12" fill="#404040">PostgreSQL</text>

  <!-- ═══ EXTERNAL SERVICES ═══ -->
  <rect x="408" y="466" width="392" height="110" rx="10" fill="#f7f7f7" stroke="#c8c8c8" stroke-width="1.5"/>
  <text x="426" y="485" font-size="9" font-weight="700" fill="#525252" letter-spacing="2.2">EXTERNAL SERVICES</text>

  <rect x="426" y="492" width="162" height="26" rx="6" fill="#ebebeb" stroke="#d4d4d4" stroke-width="1"/>
  <text x="507" y="510" text-anchor="middle" font-size="12" fill="#404040">Gemini 2.5 Flash</text>

  <rect x="598" y="492" width="62" height="26" rx="6" fill="#ebebeb" stroke="#d4d4d4" stroke-width="1"/>
  <text x="629" y="510" text-anchor="middle" font-size="12" fill="#404040">Auth0</text>

  <rect x="670" y="492" width="112" height="26" rx="6" fill="#ebebeb" stroke="#d4d4d4" stroke-width="1"/>
  <text x="726" y="510" text-anchor="middle" font-size="12" fill="#404040">Firebase FCM</text>

  <rect x="426" y="528" width="152" height="26" rx="6" fill="#ebebeb" stroke="#d4d4d4" stroke-width="1"/>
  <text x="502" y="546" text-anchor="middle" font-size="12" fill="#404040">Open Food Facts</text>

  <rect x="588" y="528" width="92" height="26" rx="6" fill="#ebebeb" stroke="#d4d4d4" stroke-width="1"/>
  <text x="634" y="546" text-anchor="middle" font-size="12" fill="#404040">Netto API</text>

  <!-- Footer -->
  <line x1="40" y1="608" x2="780" y2="608" stroke="#e2e8f0" stroke-width="1"/>
  <text x="410" y="628" text-anchor="middle" font-size="11" fill="#94a3b8" letter-spacing="0.5">Pantio · MVP · 2026</text>

</svg>
